<?xml version="1.0" encoding="utf-8"?>
<!-- Generator: Adobe Illustrator 21.0.0, SVG Export Plug-In . SVG Version: 6.00 Build 0)  -->
<svg version="1.1" id="Lager_1" xmlns="http://www.w3.org/2000/svg" xmlns:xlink="http://www.w3.org/1999/xlink" x="0px" y="0px"
	 viewBox="0 0 24 24" style="enable-background:new 0 0 24 24;" xml:space="preserve">
<style type="text/css">
	.st0{fill:#FFFFFF;}
</style>
<title>Instagram icon</title>
<path class="st0" d="M12,0C8.74,0,8.333,0.015,7.053,0.072C5.775,0.132,4.905,0.333,4.14,0.63C3.351,0.936,2.681,1.347,2.014,2.014
	S0.935,3.35,0.63,4.14C0.333,4.905,0.131,5.775,0.072,7.053C0.012,8.333,0,8.74,0,12s0.015,3.667,0.072,4.947
	c0.06,1.277,0.261,2.148,0.558,2.913c0.306,0.788,0.717,1.459,1.384,2.126c0.667,0.666,1.336,1.079,2.126,1.384
	c0.766,0.296,1.636,0.499,2.913,0.558C8.333,23.988,8.74,24,12,24s3.667-0.015,4.947-0.072c1.277-0.06,2.148-0.262,2.913-0.558
	c0.788-0.306,1.459-0.718,2.126-1.384c0.666-0.667,1.079-1.335,1.384-2.126c0.296-0.765,0.499-1.636,0.558-2.913
	C23.988,15.667,24,15.26,24,12s-0.015-3.667-0.072-4.947c-0.06-1.277-0.262-2.149-0.558-2.913c-0.306-0.789-0.718-1.459-1.384-2.126
	c-0.667-0.667-1.335-1.079-2.126-1.384c-0.765-0.297-1.636-0.499-2.913-0.558C15.667,0.012,15.26,0,12,0z M12,2.16
	c3.203,0,3.585,0.016,4.85,0.071c1.17,0.055,1.805,0.249,2.227,0.415c0.562,0.217,0.96,0.477,1.382,0.896
	c0.419,0.42,0.679,0.819,0.896,1.381c0.164,0.422,0.36,1.057,0.413,2.227c0.057,1.266,0.07,1.646,0.07,4.85s-0.015,3.585-0.074,4.85
	c-0.061,1.17-0.256,1.805-0.421,2.227c-0.224,0.562-0.479,0.96-0.899,1.382c-0.419,0.419-0.824,0.679-1.38,0.896
	c-0.42,0.164-1.065,0.36-2.235,0.413c-1.274,0.057-1.649,0.07-4.859,0.07c-3.211,0-3.586-0.015-4.859-0.074
	c-1.171-0.061-1.816-0.256-2.236-0.421c-0.569-0.224-0.96-0.479-1.379-0.899c-0.421-0.419-0.69-0.824-0.9-1.38
	c-0.165-0.42-0.359-1.065-0.42-2.235c-0.045-1.26-0.061-1.649-0.061-4.844c0-3.196,0.016-3.586,0.061-4.861
	c0.061-1.17,0.255-1.814,0.42-2.234c0.21-0.57,0.479-0.96,0.9-1.381C3.915,3.09,4.306,2.82,4.875,2.611
	C5.295,2.445,5.926,2.25,7.096,2.19c1.275-0.045,1.65-0.06,4.859-0.06C11.955,2.13,12,2.16,12,2.16z M12,5.838
	c-3.405,0-6.162,2.76-6.162,6.162c0,3.405,2.76,6.162,6.162,6.162c3.405,0,6.162-2.76,6.162-6.162
	C18.162,8.595,15.402,5.838,12,5.838z M12,16c-2.21,0-4-1.79-4-4s1.79-4,4-4s4,1.79,4,4S14.21,16,12,16z M19.846,5.595
	c0,0.795-0.646,1.44-1.44,1.44c-0.795,0-1.44-0.646-1.44-1.44s0.646-1.439,1.44-1.439C19.199,4.155,19.846,4.801,19.846,5.595z"/>
</svg>
