<?xml version="1.0" encoding="utf-8"?>
<!-- Generator: Adobe Illustrator 21.0.0, SVG Export Plug-In . SVG Version: 6.00 Build 0)  -->
<svg version="1.1" id="Lager_1" xmlns="http://www.w3.org/2000/svg" xmlns:xlink="http://www.w3.org/1999/xlink" x="0px" y="0px"
	 viewBox="0 0 682 682" style="enable-background:new 0 0 682 682;" xml:space="preserve">
<style type="text/css">
	.st0{fill:#FFFFFF;}
</style>
<path class="st0" d="M98.517,34.632c-46.884,0-77.537,30.786-77.537,71.251c0,39.571,29.74,71.235,75.738,71.235h0.89
	c47.801,0,77.549-31.664,77.549-71.235C174.263,65.418,145.409,34.632,98.517,34.632z"/>
<path class="st0" d="M29.081,233.418h137.061v412.355H29.081V233.418z"/>
<path class="st0" d="M502.563,223.74c-73.939,0-123.52,69.479-123.52,69.479v-59.801H241.978v412.355h137.057V415.497
	c0-12.328,0.894-24.636,4.515-33.452c9.908-24.617,32.457-50.119,70.322-50.119c49.596,0,69.432,37.815,69.432,93.249v220.597
	h137.05V409.336C660.354,282.678,592.733,223.74,502.563,223.74z"/>
</svg>
