<?xml version="1.0" encoding="utf-8"?>
<!-- Generator: Adobe Illustrator 21.0.0, SVG Export Plug-In . SVG Version: 6.00 Build 0)  -->
<svg version="1.1" id="Lager_1" xmlns="http://www.w3.org/2000/svg" xmlns:xlink="http://www.w3.org/1999/xlink" x="0px" y="0px"
	 viewBox="0 0 512 512" style="enable-background:new 0 0 512 512;" xml:space="preserve">
<style type="text/css">
	.st0{fill:#FFFFFF;}
</style>
<path class="st0" d="M464.734,112.465c-53.742,0-97.465-43.723-97.465-97.465c0-8.285-6.715-15-15-15h-80.336
	c-8.281,0-15,6.715-15,15v329.367c0,31.594-25.707,57.297-57.301,57.297s-57.297-25.703-57.297-57.297
	c0-31.598,25.703-57.301,57.297-57.301c8.285,0,15-6.715,15-15V191.73c0-8.281-6.715-15-15-15C107.199,176.73,32,251.934,32,344.367
	S107.199,512,199.633,512S367.27,436.801,367.27,344.367V198.574c29.852,15.918,63.074,24.227,97.465,24.227c8.285,0,15-6.715,15-15
	v-80.336C479.734,119.184,473.02,112.465,464.734,112.465z"/>
</svg>
