<?xml version="1.0" encoding="utf-8"?>
<!-- Generator: Adobe Illustrator 21.0.0, SVG Export Plug-In . SVG Version: 6.00 Build 0)  -->
<svg version="1.1" xmlns="http://www.w3.org/2000/svg" xmlns:xlink="http://www.w3.org/1999/xlink" x="0px" y="0px"
	 viewBox="0 0 612 676.84" style="enable-background:new 0 0 612 676.84;" xml:space="preserve">
<style type="text/css">
	.st0{fill:#FFFFFF;}
</style>
<g id="Lager_1">
	<g>
		<path d="M262.6,505.941c-17.366,4.974-26.68,1.661-33.352-12.476c-24.355-51.602-53.744-101.225-73.649-154.432
			c-25.893-69.216-2.816-148.395,69.882-184.777c58.66-29.357,149.852-22.299,196.686,27.949
			c37.234,39.947,46.806,87.022,36.307,139.663c-10.156,50.922-41.651,91.99-62.379,138.014
			c-5.861,13.013-12.898,25.496-19.362,38.239c-4.444,8.759-17.356,14.034-25.31,9.129c-2.099-1.294-2.915-8.053-1.559-11.057
			c21.005-46.518,43.299-92.472,63.444-139.352c9.165-21.327,18.652-44.08,20.265-66.736c2.719-38.193-13.388-71.324-43.815-95.443
			c-25.744-20.407-56.539-30.586-88.884-28.68c-51.28,3.021-93.495,23.524-116.044,73.405c-14.55,32.185-12.704,65.01,0.933,96.248
			c16.562,37.94,36.538,74.375,54.023,111.933C248.43,466.133,254.8,485.758,262.6,505.941z"/>
		<path d="M289.802,504.719c-7.353-40.264-14.706-80.529-22.06-120.793c1-1.044,1.999-2.088,2.999-3.132
			c7.617,6.992,15.85,13.434,22.715,21.101c11.606,12.962,11.048,12.957,22.181-0.281c6.463-7.686,14.424-14.112,21.71-21.106
			c1.303,0.942,2.606,1.883,3.909,2.825c-7.459,40.456-14.918,80.911-22.378,121.367c-4.306-32.512,5.437-64.088,8.922-96.102
			c-1.115-0.59-2.231-1.18-3.346-1.771c-3.355,3.094-7.189,5.812-9.977,9.353c-8.667,11.007-10.674,11.004-19.214,0.417
			c-3.107-3.852-7.509-6.661-13.947-8.073c4.418,31.995,8.836,63.991,13.253,95.986C292.98,504.579,291.391,504.649,289.802,504.719
			z"/>
		<path d="M303.094,558.246c-16.152-0.021-32.35,0.655-48.425-0.453c-4.525-0.312-8.69-5.859-13.02-9.004
			c3.895-3.543,7.713-10.058,11.696-10.161c33.654-0.87,67.346-0.934,101.001-0.16c4.251,0.098,8.358,6.445,12.532,9.897
			c-4.648,3.301-9.117,9.098-13.978,9.448C336.374,559.001,319.708,558.267,303.094,558.246z"/>
		<path d="M304.572,605.068c-16.599-0.011-33.241,0.65-49.768-0.445c-4.505-0.299-8.659-5.882-12.974-9.04
			c4.215-3.036,8.374-8.609,12.654-8.704c33.181-0.734,66.393-0.734,99.575-0.023c4.378,0.094,8.642,5.489,12.959,8.43
			c-4.678,3.264-9.173,8.979-14.067,9.344C336.903,605.825,320.709,605.078,304.572,605.068z"/>
		<path d="M112.86,193.247c-5.246-2.237-8.504-3.007-11.026-4.807c-11.922-8.511-24.009-16.871-35.182-26.297
			c-2.859-2.412-4.96-9.99-3.309-12.635c4.07-6.522,7.238-18.907,18.902-11.956c14.089,8.396,27.316,18.35,40.234,28.498
			c2.384,1.873,3.242,8.672,1.789,11.796C121.594,183.597,116.681,188.307,112.86,193.247z"/>
		<path d="M494.524,192.552c-3.931-4.88-9.475-9.89-12.305-16.131c-1.26-2.779,1.803-9.476,4.874-11.917
			c12.213-9.706,25.184-18.46,37.91-27.517c8.09-5.757,11.419,0.924,15.267,6.005c4.047,5.343,11.178,11.3,3.246,17.557
			c-13.684,10.792-28.445,20.221-42.812,30.14C499.638,191.426,498.117,191.502,494.524,192.552z"/>
		<path d="M121.27,403.859c-0.157,0.09-3.216,2.187-6.543,3.692c-13.836,6.26-27.746,12.356-41.641,18.485
			c-12.53,5.527-14.338-4.676-18.504-12.213c-4.866-8.804-0.441-12.382,6.955-15.588c11.809-5.119,23.32-10.926,35.118-16.072
			C109.198,376.689,122.375,385.957,121.27,403.859z"/>
		<path d="M500.835,380.326c18.228,7.468,33.858,13.064,48.509,20.573c2.837,1.454,3.993,11.366,2.046,15.586
			c-2.151,4.662-9.852,11.078-13.249,10.11c-15.387-4.385-30.495-10.344-44.768-17.582c-3.15-1.597-4.378-11.203-3.051-16.208
			C491.611,387.942,497.319,384.25,500.835,380.326z"/>
		<path d="M427.202,50.589c7.139,4.091,14.327,6.36,18.331,11.24c2.191,2.67,0.074,10.244-1.978,14.752
			c-4.932,10.836-11.069,21.118-16.537,31.718c-5.697,11.043-13.523,6.517-21.011,2.893c-7.784-3.766-10.972-8.938-5.806-17.646
			c6.073-10.239,10.884-21.222,16.834-31.541C419.352,57.986,423.283,54.897,427.202,50.589z"/>
		<path d="M187.884,114.74c-1.432-1.23-5.237-3.203-7.098-6.332c-6.323-10.632-12.084-21.607-17.824-32.574
			c-5.322-10.167-0.508-16.224,8.479-21.02c9.319-4.973,14.217-1.333,18.389,7.163c4.85,9.876,10.813,19.2,16.027,28.906
			C212.23,102.747,204.389,114.763,187.884,114.74z"/>
		<path d="M547.503,271.112c6.418-0.002,12.849,0.265,19.25-0.064c9.447-0.486,14.478,2.542,14.45,13.163
			c-0.028,10.656-5.391,13.457-14.612,13.337c-13.75-0.179-27.508-0.262-41.254,0.004c-9.651,0.187-12.597-4.687-12.832-13.623
			c-0.251-9.548,3.602-13.407,12.999-12.895C532.817,271.432,540.169,271.113,547.503,271.112z"/>
		<path d="M60.763,271.097c6.415-0.016,12.842,0.235,19.241-0.076c9.134-0.445,13.721,3.174,13.411,12.758
			c-0.283,8.741-3.624,13.928-13.076,13.861c-13.744-0.098-27.492-0.157-41.235,0.011c-9.387,0.115-11.375-5.402-11.463-13.349
			c-0.088-7.901,1.442-13.637,11.132-13.247C46.092,271.35,53.432,271.113,60.763,271.097z"/>
		<path d="M320.172,59.066c0.012,4.589-0.329,9.208,0.08,13.76c0.951,10.566-3.58,14.94-14.209,15.136
			c-11.049,0.204-13.013-5.831-12.771-14.849c0.27-10.088,0.195-20.19,0.073-30.283c-0.109-9.059,3.823-13.675,13.236-13.377
			c8.656,0.274,14.092,3.365,13.626,13.096C319.945,48.043,320.161,53.56,320.172,59.066z"/>
		<path d="M339.894,633.1c-24.515,27.87-44.864,27.981-71.235,0C292.772,633.1,315.689,633.1,339.894,633.1z"/>
	</g>
</g>
<g id="Lager_3">
</g>
<g id="Lager_2">
</g>
</svg>
