<?xml version="1.0" encoding="utf-8"?>
<!-- Generator: Adobe Illustrator 21.0.0, SVG Export Plug-In . SVG Version: 6.00 Build 0)  -->
<svg version="1.1" id="Lager_1" xmlns="http://www.w3.org/2000/svg" xmlns:xlink="http://www.w3.org/1999/xlink" x="0px" y="0px"
	 viewBox="0 0 595.615 138.9" style="enable-background:new 0 0 595.615 138.9;" xml:space="preserve">
<style type="text/css">
	.st0{clip-path:url(#SVGID_2_);}
	.st1{fill:#012A5C;}
	.st2{fill:#FAE3D8;}
</style>
<g>
	<defs>
		<rect id="SVGID_1_" x="-242.921" y="-468.247" width="1080" height="1080"/>
	</defs>
	<clipPath id="SVGID_2_">
		<use xlink:href="#SVGID_1_"  style="overflow:visible;"/>
	</clipPath>
	<g id="Champage_pink_4" class="st0">
		<ellipse id="Ellipse_1" class="st1" cx="101.62" cy="31.608" rx="26.522" ry="26.36"/>
		<g id="Group_27">
			<path id="Path_1" class="st2" d="M62.613,125.088c-0.017,2.449-2.016,4.421-4.465,4.405c-0.112-0.001-0.224-0.006-0.335-0.015
				C23.453,127.047-2.431,97.222,0,62.862C2.191,31.885,26.837,7.24,57.813,5.049c2.441-0.202,4.583,1.614,4.785,4.055
				c0.009,0.111,0.014,0.223,0.015,0.335V125.088z"/>
			<path id="Path_2" class="st2" d="M122.677,76.262c-23.684,5.535-42.025,24.275-47.047,48.073
				c-0.496,2.393,1.042,4.735,3.435,5.231c0.297,0.062,0.6,0.092,0.904,0.092h43.746c2.438,0.008,4.42-1.962,4.428-4.4c0,0,0,0,0,0
				V80.551c-0.014-2.449-2.01-4.424-4.459-4.41C123.345,76.142,123.007,76.183,122.677,76.262z"/>
			<g id="Group_2" transform="translate(413.095 492.585)">
				<path id="Path_3" class="st2" d="M-242.921-422.491c0-23.055,18.468-42.468,45.446-42.468c9.587,0,17.277,2.126,24.261,6.241
					c3.665,2.23,3.91,5.529,1.307,8.815l-3.792,4.6c-2.487,2.931-5.2,3.173-8.87,1.643c-4.028-1.897-8.458-2.784-12.906-2.585
					c-13.969,0-23.672,10.459-23.672,23.756c0,12.941,9,23.758,24.031,23.758c4.167,0.033,8.303-0.723,12.189-2.23v-10.94h-12.189
					c-4.14,0-6.4-2.23-6.4-6.356v-3.057c0-4.115,2.255-6.345,6.4-6.345h26.389c4.14,0,6.4,2.23,6.4,6.345v23.641
					c0,3.3-0.948,5.77-3.678,7.77c-8.402,6.402-18.671,9.874-29.234,9.884C-224.696-380.023-242.921-399.436-242.921-422.491z"/>
				<path id="Path_4" class="st2" d="M-154.579-458.133c0-5.643,4.14-10.114,12.189-10.114c8.164,0,12.315,4.471,12.315,10.114
					c0,5.758-4.5,10.114-12.315,10.114C-150.084-448.018-154.579-452.378-154.579-458.133z"/>
				<path id="Path_5" class="st2" d="M-153.046-387.678v-48.456c0-4.115,2.256-6.356,6.4-6.356h8.523
					c4.14,0,6.383,2.241,6.383,6.356v48.456c0,4.126-2.243,6.355-6.383,6.355h-8.523
					C-150.79-381.323-153.046-383.552-153.046-387.678z"/>
				<path id="Path_6" class="st2" d="M-112.547-358.738c-3.794-1.643-4.5-5.057-2.487-8.585l1.769-3.173
					c2.012-3.529,4.856-4.241,8.523-2.471c4.377,2.185,9.193,3.348,14.085,3.4c9.7,0,16.8-5.057,16.8-16.814v-3.057
					c-3.781,6.113-10.882,9.412-18.93,9.412c-16.814,0-29-14.355-29-31.882s12.189-31.872,29-31.872
					c8.048,0,14.791,3.288,18.584,9.528v-2.713c0-3.758,2.244-5.528,6.383-5.528h8.05c4.139,0,6.394,2.241,6.394,6.356v48.582
					c0,24.7-15.738,33.87-35.038,33.87C-96.734-353.551-104.979-355.278-112.547-358.738z M-73.854-411.906
					c0-8.7-5.319-15.643-13.483-15.643c-8.407,0-13.611,7.057-13.611,15.643s5.2,15.642,13.611,15.642
					c8.163,0.001,13.482-6.941,13.482-15.641L-73.854-411.906z"/>
				<path id="Path_7" class="st2" d="M-40.203-387.677v-72.34c0-4.115,2.255-6.344,6.395-6.344h8.523
					c4.139,0,6.383,2.229,6.383,6.344v72.34c0,4.126-2.244,6.355-6.383,6.355h-8.523C-37.948-381.323-40.203-383.547-40.203-387.677
					z"/>
				<path id="Path_8" class="st2" d="M-9.061-411.664c0-16.942,12.547-32.113,34.091-32.113c18.457,0,32.9,11.056,33.247,30.573
					c0.127,3.654-2.475,5.183-6.5,5.183H10.945c0,5.414,6.267,11.757,17.507,11.757c4.258,0.014,8.452-1.037,12.2-3.057
					c3.55-1.758,6.5-1.528,8.87,1.529l1.653,2.114c2.487,3.057,2.371,6.713-1.3,9.184c-6.984,4.7-15.264,6.47-23.081,6.47
					C4.318-380.023-9.061-394.148-9.061-411.664z M38.756-418.607c-0.948-7.057-7.458-9.884-13.61-9.884s-12.664,2.943-13.854,9.884
					H38.756z"/>
				<path id="Path_9" class="st2" d="M64.117-411.664c0-16.942,12.547-32.113,34.091-32.113c18.456,0,32.9,11.056,33.247,30.573
					c0.127,3.654-2.475,5.183-6.5,5.183H84.122c0,5.414,6.268,11.757,17.509,11.757c4.258,0.014,8.452-1.037,12.2-3.057
					c3.551-1.758,6.5-1.528,8.87,1.529l1.655,2.114c2.486,3.057,2.37,6.713-1.3,9.184c-6.984,4.7-15.265,6.47-23.081,6.47
					C77.496-380.023,64.117-394.148,64.117-411.664z M111.934-418.607c-0.948-7.057-7.459-9.884-13.611-9.884
					s-12.662,2.942-13.853,9.884H111.934z"/>
				<path id="Path_10" class="st2" d="M140.844-387.677v-48.456c0-4.115,2.255-6.356,6.4-6.356h7.806c4.024,0,6.4,2.241,6.4,6.356
					v6.815c2.012-11.873,11.356-14.459,15.623-14.459c0.592-0.015,1.184,0.023,1.769,0.115c3.076,0,3.678,2.586,3.678,4.816v10.586
					c0,3.54-1.9,5.068-4.626,4.711c-0.941-0.093-1.887-0.132-2.833-0.115c-8.523,0-12.906,5.644-12.906,16.585v19.4
					c0,4.126-2.243,6.355-6.383,6.355h-8.523C143.099-381.322,140.844-383.551,140.844-387.677z"/>
			</g>
		</g>
	</g>
</g>
</svg>
